<svg width="41" height="36" viewBox="0 0 41 36" fill="none">
  <title>IQ AI Logo</title>
  <g clipPath="url(#clip0_20948_6112)">
    <path
      d="M38.4112 21.7653C38.4112 22.5647 38.2661 23.3293 38.0005 24.0342C37.0915 26.442 34.7821 28.1523 32.0758 28.1523C29.306 28.1523 26.9525 26.3606 26.0908 23.8639C20.9741 24.2347 18.0483 21.929 16.8317 17.5343C13.7586 16.6916 11.4998 13.8588 11.4998 10.4932C11.4998 8.31652 12.4452 6.362 13.9446 5.02594C15.2204 3.88714 16.8984 3.19629 18.7367 3.19629C20.8426 3.19629 22.739 4.10286 24.0599 5.55199C24.9484 4.96624 26.01 4.62671 27.1503 4.62671C27.9462 4.62671 28.7047 4.79273 29.392 5.09207C31.3809 5.95757 32.7793 7.94006 32.8104 10.2557C32.8114 10.2828 32.8114 10.3089 32.8114 10.336L32.8104 10.4326V10.4336C33.0996 10.3696 33.3997 10.336 33.7085 10.336C35.0875 10.336 36.3127 11.002 37.0849 12.0323H37.0861C37.6217 12.747 37.9391 13.6374 37.9391 14.6027C37.941 15.6038 37.5911 16.5733 36.9516 17.339C36.9036 17.3981 36.8536 17.4556 36.802 17.5115C37.8035 18.6405 38.4112 20.1318 38.4112 21.7653"
      fill="#ED64A6"
    />
    <path
      d="M27.0802 9.97683C25.934 11.2328 25.2339 12.9094 25.2339 14.7509C25.2339 18.6457 28.3654 21.8031 32.2281 21.8031C32.7265 21.8033 33.2234 21.7501 33.7106 21.6443M18.4309 7.70044C18.6059 10.2475 20.7105 12.2589 23.281 12.2589M31.0128 11.3131C31.5327 10.8775 32.1494 10.5754 32.8102 10.4325M24.0597 5.55078C23.2456 6.08537 22.5764 6.82624 22.1258 7.70044"
      stroke="#103849"
      strokeWidth="0.864166"
      strokeMiterlimit="10"
      strokeLinecap="round"
      strokeLinejoin="round"
    />
    <path
      d="M38.4112 21.7633C38.4112 25.2913 35.5748 28.1504 32.0758 28.1504C29.306 28.1504 26.9525 26.3587 26.0908 23.8619C20.9741 24.2328 18.0483 21.927 16.8317 17.5323C13.7586 16.6897 11.4998 13.8568 11.4998 10.4912C11.4998 6.46108 14.7395 3.19434 18.7367 3.19434C20.8426 3.19434 22.739 4.10091 24.0599 5.55004C24.9484 4.96428 26.01 4.62476 27.1503 4.62476C30.2772 4.62476 32.8114 7.18121 32.8114 10.3341L32.8104 10.4306V10.4317C33.0996 10.3677 33.3997 10.3341 33.7085 10.3341C36.0448 10.3341 37.9391 12.2439 37.9391 14.6008C37.9391 15.7255 37.5077 16.7472 36.802 17.5095C37.8035 18.6386 38.4112 20.1298 38.4112 21.7634L38.4112 21.7633Z"
      stroke="#103849"
      strokeWidth="0.756095"
      strokeMiterlimit="10"
      strokeLinejoin="round"
    />
    <path
      d="M36.8028 17.5096C36.8028 17.5096 36.3117 16.9958 35.6399 16.4609M17.9113 29.093C17.634 28.5089 17.4566 27.8818 17.3865 27.2382"
      stroke="#103849"
      strokeWidth="0.864166"
      strokeMiterlimit="10"
      strokeLinecap="round"
      strokeLinejoin="round"
    />
    <path
      d="M30.3321 24.6516C30.556 25.2781 30.6703 25.939 30.6697 26.605C30.6697 30.0301 27.6881 32.8054 24.0093 32.8054C21.2816 32.8054 18.9376 31.2793 17.9093 29.0941C17.0619 29.6743 16.0452 30.0127 14.9535 30.0127C12.5054 30.0127 10.4401 28.3142 9.7926 25.9911C9.33032 26.1073 8.85564 26.1659 8.3792 26.1657C5.1813 26.1657 2.58789 23.5517 2.58789 20.3262C2.58789 17.8491 4.11851 15.7321 6.27838 14.8849C6.19343 14.5304 6.14826 14.1627 6.14826 13.7853C6.14826 10.8602 8.84388 8.48926 12.1697 8.48926C14.079 8.48926 15.7827 9.27219 16.8853 10.4913C17.7695 10.013 18.7892 9.73869 19.8757 9.73869C23.2456 9.73869 25.9777 12.3732 25.9777 15.6225C25.978 15.6991 25.9762 15.7758 25.9723 15.8523C28.7529 16.3664 30.8665 18.9413 30.8665 22.041C30.8665 22.9726 30.6762 23.8565 30.332 24.6515"
      fill="#ED64A6"
    />
    <path
      d="M28.1734 21.7654C29.1661 22.505 29.9256 23.5051 30.3344 24.6525M9.7949 25.9919C9.65719 25.4995 9.58402 24.98 9.58402 24.4421C9.58402 22.2468 10.8092 20.3478 12.5884 19.44M7.78887 14.5192C7.26183 14.5735 6.75625 14.6983 6.28076 14.8859M16.8888 10.4932L16.8876 10.4922M16.8876 10.4922C16.1316 10.9044 15.4754 11.4663 14.9624 12.1365"
      stroke="#103849"
      strokeWidth="0.864166"
      strokeMiterlimit="10"
      strokeLinecap="round"
      strokeLinejoin="round"
    />
    <path
      d="M30.3355 24.6516C30.5594 25.2781 30.6737 25.939 30.6731 26.605C30.6731 30.0301 27.6915 32.8054 24.0127 32.8054C21.285 32.8054 18.941 31.2793 17.9128 29.0941C17.0653 29.6743 16.0486 30.0127 14.9569 30.0127C12.5088 30.0127 10.4435 28.3142 9.79602 25.9911C9.33373 26.1073 8.85906 26.1659 8.38262 26.1657C5.18472 26.1657 2.59131 23.5517 2.59131 20.3262C2.59131 17.8491 4.12193 15.7321 6.2818 14.8849C6.19685 14.5304 6.15167 14.1627 6.15167 13.7853C6.15167 10.8602 8.8473 8.48926 12.1731 8.48926C14.0825 8.48926 15.7861 9.27219 16.8887 10.4913C17.7729 10.013 18.7927 9.73869 19.8791 9.73869C23.2491 9.73869 25.9811 12.3732 25.9811 15.6225C25.9814 15.6991 25.9796 15.7758 25.9757 15.8523C28.7563 16.3664 30.8699 18.9413 30.8699 22.041C30.8699 22.9726 30.6796 23.8565 30.3354 24.6515L30.3355 24.6516Z"
      stroke="#103849"
      strokeWidth="0.756095"
      strokeMiterlimit="10"
      strokeLinejoin="round"
    />
    <path
      d="M20.7683 17.6003C21.8396 16.4637 23.3186 15.7598 24.9514 15.7598C25.3 15.7598 25.641 15.7912 25.9733 15.8529M25.5902 23.2408C24.7461 24.305 23.4475 24.9868 21.9909 24.9868C19.4471 24.9868 17.385 22.9074 17.385 20.3426C17.3834 19.2717 17.7504 18.2334 18.4234 17.4049"
      stroke="#103849"
      strokeWidth="0.864166"
      strokeMiterlimit="10"
      strokeLinecap="round"
      strokeLinejoin="round"
    />
    <path
      d="M24.0291 27.2861C24.0291 26.374 23.8009 25.5162 23.3986 24.7667M14.403 24.3199C15.1624 23.1854 16.3447 22.3643 17.7226 22.0857M6.19165 20.3307C6.77509 20.0976 7.397 19.978 8.02455 19.9782C9.03078 19.9768 10.0135 20.2848 10.8416 20.8612M15.6611 16.0564C15.3477 16.1495 15.016 16.1993 14.6726 16.1993C13.7614 16.2005 12.8858 15.8419 12.2336 15.2002M30.7776 15.83C31.2598 15.4672 31.8454 15.2717 32.4469 15.2727C32.6141 15.2726 32.781 15.2875 32.9455 15.3173"
      stroke="#103849"
      strokeWidth="0.864166"
      strokeMiterlimit="10"
      strokeLinecap="round"
      strokeLinejoin="round"
    />
    <path
      d="M37.2992 17.5136C37.9575 16.69 38.3166 15.6687 38.3166 14.6025C38.3166 12.0405 36.2498 9.95606 33.7096 9.95606C33.532 9.95606 33.3548 9.96647 33.1791 9.98697C32.9994 6.79116 30.3643 4.24691 27.1512 4.24691C26.0798 4.24691 25.0392 4.52974 24.1223 5.06758C22.6937 3.6281 20.7572 2.81854 18.7375 2.81641C15.3524 2.81641 12.4775 5.05619 11.4906 8.14268C8.28197 8.44536 5.77391 10.8604 5.77391 13.7858C5.77391 14.0769 5.79916 14.3685 5.84894 14.6562C3.62993 15.659 2.21362 17.8509 2.21362 20.3268C2.21362 23.7559 4.98048 26.5458 8.38136 26.5458C8.76973 26.5458 9.15725 26.5092 9.53886 26.4365C10.3461 28.7831 12.5254 30.3927 14.9557 30.3927C15.9418 30.3934 16.9107 30.132 17.7647 29.6349C18.967 31.8051 21.3721 33.1855 24.0115 33.1855C27.2248 33.1855 29.9402 31.1601 30.7791 28.4035C31.2011 28.4873 31.6351 28.5315 32.0766 28.5315C35.7776 28.5315 38.7887 25.4959 38.7887 21.7649C38.7887 20.2106 38.262 18.7136 37.2992 17.5135V17.5136Z"
      stroke="#103849"
      strokeWidth="1.51227"
      strokeMiterlimit="10"
      strokeLinejoin="round"
    />
    <path
      d="M18.7362 0.646484C16.7477 0.646484 14.8349 1.24354 13.2048 2.37299C11.7972 3.34822 10.6814 4.66362 9.94435 6.20816C6.35672 7.0848 3.7917 9.99583 3.62955 13.4381C1.40901 14.9927 0.0610352 17.5594 0.0610352 20.3261C0.0610352 24.9027 3.71539 28.6351 8.23625 28.7129C9.66377 31.0779 12.2085 32.5612 14.9544 32.5612C15.6559 32.5612 16.3452 32.4675 17.0139 32.2817C18.7444 34.2221 21.2869 35.3539 24.0102 35.3539C25.8549 35.3539 27.6419 34.8265 29.1778 33.829C30.4259 33.0185 31.4315 31.9487 32.1275 30.6998C36.9911 30.6716 40.9387 26.674 40.9387 21.7642C40.9387 20.2473 40.5624 18.7754 39.8435 17.4593C40.2543 16.5636 40.4669 15.5885 40.4666 14.6016C40.4666 12.8143 39.7834 11.1241 38.5427 9.84274C37.5643 8.83213 36.3259 8.16455 34.9782 7.9062C34.5226 6.4151 33.6503 5.07164 32.4582 4.04769C30.9769 2.77632 29.0954 2.07771 27.1501 2.07682C26.2434 2.07682 25.3334 2.23195 24.476 2.52917C22.8104 1.30984 20.803 0.646484 18.7362 0.646484ZM18.7362 2.05641C20.7524 2.05641 22.7297 2.81135 24.2441 4.14424C25.1526 3.71116 26.145 3.48666 27.1499 3.48691C30.497 3.48691 33.3074 5.9412 33.8473 9.19793C36.7385 9.27269 39.0681 11.6681 39.0681 14.6017C39.0671 15.6296 38.7763 16.6361 38.2295 17.5036C39.0782 18.7506 39.5403 20.2424 39.5403 21.7643C39.5403 25.9141 36.1914 29.2902 32.0753 29.2902C31.8091 29.2902 31.5419 29.2756 31.276 29.2466C30.1272 32.0425 27.2323 33.9441 24.0101 33.9441C21.3528 33.9441 18.9177 32.6874 17.4889 30.6215C16.6888 30.9706 15.8263 31.1509 14.9544 31.1513C12.4142 31.1513 10.1166 29.6156 9.05864 27.271C8.83323 27.2932 8.60646 27.3043 8.38009 27.3043C4.56407 27.3043 1.45943 24.174 1.45943 20.3261C1.45943 17.7715 2.84605 15.4312 5.03577 14.2158C5.02515 14.0725 5.01982 13.9288 5.0198 13.785C5.0198 10.629 7.53036 7.97746 10.9353 7.44645C12.1792 4.20273 15.2553 2.05641 18.7364 2.05641"
      fill="#F0F0F0"
    />
  </g>
  <defs>
    <clipPath id="clip0_20948_6112">
      <rect
        width="40.8779"
        height="34.7075"
        fill="white"
        transform="translate(0.0610352 0.646484)"
      />
    </clipPath>
  </defs>
</svg>